<?xml version="1.0" encoding="UTF-8" standalone="no"?>
<!DOCTYPE svg PUBLIC "-//W3C//DTD SVG 1.1//EN"
 "http://www.w3.org/Graphics/SVG/1.1/DTD/svg11.dtd">
<!-- Generated by graphviz version 2.43.0 (0)
 -->
<!-- Title: logic::EntityModel Pages: 1 -->
<!--zoomable 218 -->
<svg id="main" version="1.1" xmlns="http://www.w3.org/2000/svg" xmlns:xlink="http://www.w3.org/1999/xlink" xml:space="preserve" onload="init(evt)">
<style type="text/css"><![CDATA[
.edge:hover path { stroke: red; }
.edge:hover polygon { stroke: red; fill: red; }
]]></style>
<script type="text/javascript"><![CDATA[
var edges = document.getElementsByTagName('g');
if (edges && edges.length) {
  for (var i=0;i<edges.length;i++) {
    if (edges[i].id.substr(0,4)=='edge') {
      edges[i].setAttribute('class','edge');
    }
  }
}
]]></script>
        <defs>
                <circle id="rim" cx="0" cy="0" r="7"/>
                <circle id="rim2" cx="0" cy="0" r="3.5"/>
                <g id="zoomPlus">
                        <use xlink:href="#rim" fill="#404040">
                                <set attributeName="fill" to="#808080" begin="zoomplus.mouseover" end="zoomplus.mouseout"/>
                        </use>
                        <path d="M-4,0h8M0,-4v8" fill="none" stroke="white" stroke-width="1.5" pointer-events="none"/>
                </g>
                <g id="zoomMin">
                        <use xlink:href="#rim" fill="#404040">
                                <set attributeName="fill" to="#808080" begin="zoomminus.mouseover" end="zoomminus.mouseout"/>
                        </use>
                        <path d="M-4,0h8" fill="none" stroke="white" stroke-width="1.5" pointer-events="none"/>
                </g>
                <g id="dirArrow">
                        <path fill="none" stroke="white" stroke-width="1.5" d="M0,-3.0v7 M-2.5,-0.5L0,-3.0L2.5,-0.5"/>
                </g>
               <g id="resetDef">
                       <use xlink:href="#rim2" fill="#404040">
                               <set attributeName="fill" to="#808080" begin="reset.mouseover" end="reset.mouseout"/>
                       </use>
               </g>
        </defs>

<script type="text/javascript">
var viewWidth = 555;
var viewHeight = 218;
var sectionId = 'dynsection-0';
</script>
<script xlink:href="svgpan.js"/>
<svg id="graph" class="graph">
<g id="viewport">
<title>logic::EntityModel</title>
<polygon fill="white" stroke="transparent" points="-4,4 -4,-214 551,-214 551,4 -4,4"/>
<!-- Node1 -->
<g id="node1" class="node">
<title>Node1</title>
<g id="a_node1"><a xlink:title=" ">
<polygon fill="#bfbfbf" stroke="black" points="118,-114.5 118,-133.5 222,-133.5 222,-114.5 118,-114.5"/>
<text text-anchor="middle" x="170" y="-121.5" font-family="Helvetica,sans-Serif" font-size="10.00">logic::EntityModel</text>
</a>
</g>
</g>
<!-- Node3 -->
<g id="node3" class="node">
<title>Node3</title>
<g id="a_node3"><a xlink:href="classlogic_1_1BG__Tile__L.html" target="_top" xlink:title=" ">
<polygon fill="white" stroke="black" points="260,-180.5 260,-199.5 354,-199.5 354,-180.5 260,-180.5"/>
<text text-anchor="middle" x="307" y="-187.5" font-family="Helvetica,sans-Serif" font-size="10.00">logic::BG_Tile_L</text>
</a>
</g>
</g>
<!-- Node1&#45;&gt;Node3 -->
<g id="edge2" class="edge">
<title>Node1&#45;&gt;Node3</title>
<path fill="none" stroke="midnightblue" d="M196.22,-138.65C213.37,-148.36 236.73,-161.09 258,-171 265.15,-174.33 273.05,-177.62 280.35,-180.5"/>
<polygon fill="midnightblue" stroke="midnightblue" points="197.8,-135.52 187.38,-133.61 194.33,-141.6 197.8,-135.52"/>
</g>
<!-- Node4 -->
<g id="node4" class="node">
<title>Node4</title>
<g id="a_node4"><a xlink:href="classlogic_1_1Bonus__L.html" target="_top" xlink:title=" ">
<polygon fill="white" stroke="black" points="264,-142.5 264,-161.5 350,-161.5 350,-142.5 264,-142.5"/>
<text text-anchor="middle" x="307" y="-149.5" font-family="Helvetica,sans-Serif" font-size="10.00">logic::Bonus_L</text>
</a>
</g>
</g>
<!-- Node1&#45;&gt;Node4 -->
<g id="edge3" class="edge">
<title>Node1&#45;&gt;Node4</title>
<path fill="none" stroke="midnightblue" d="M227.2,-135.66C239.43,-138.19 252.17,-140.84 263.76,-143.24"/>
<polygon fill="midnightblue" stroke="midnightblue" points="227.58,-132.16 217.08,-133.56 226.16,-139.02 227.58,-132.16"/>
</g>
<!-- Node7 -->
<g id="node7" class="node">
<title>Node7</title>
<g id="a_node7"><a xlink:href="classlogic_1_1Platform__L.html" target="_top" xlink:title=" ">
<polygon fill="white" stroke="black" points="258,-95.5 258,-114.5 356,-114.5 356,-95.5 258,-95.5"/>
<text text-anchor="middle" x="307" y="-102.5" font-family="Helvetica,sans-Serif" font-size="10.00">logic::Platform_L</text>
</a>
</g>
</g>
<!-- Node1&#45;&gt;Node7 -->
<g id="edge6" class="edge">
<title>Node1&#45;&gt;Node7</title>
<path fill="none" stroke="midnightblue" d="M232,-115.42C240.57,-114.21 249.27,-112.98 257.57,-111.82"/>
<polygon fill="midnightblue" stroke="midnightblue" points="231.45,-111.96 222.04,-116.82 232.43,-118.89 231.45,-111.96"/>
</g>
<!-- Node12 -->
<g id="node12" class="node">
<title>Node12</title>
<g id="a_node12"><a xlink:href="classlogic_1_1Player__L.html" target="_top" xlink:title=" ">
<polygon fill="white" stroke="black" points="263.5,-57.5 263.5,-76.5 350.5,-76.5 350.5,-57.5 263.5,-57.5"/>
<text text-anchor="middle" x="307" y="-64.5" font-family="Helvetica,sans-Serif" font-size="10.00">logic::Player_L</text>
</a>
</g>
</g>
<!-- Node1&#45;&gt;Node12 -->
<g id="edge11" class="edge">
<title>Node1&#45;&gt;Node12</title>
<path fill="none" stroke="midnightblue" d="M201.6,-110.32C218.22,-102.97 239.17,-93.83 258,-86 265.61,-82.83 273.95,-79.49 281.51,-76.5"/>
<polygon fill="midnightblue" stroke="midnightblue" points="200.08,-107.17 192.36,-114.42 202.92,-113.57 200.08,-107.17"/>
</g>
<!-- Node2 -->
<g id="node2" class="node">
<title>Node2</title>
<g id="a_node2"><a xlink:href="classlogic_1_1Subject.html" target="_top" xlink:title=" ">
<polygon fill="white" stroke="black" points="0,-114.5 0,-133.5 82,-133.5 82,-114.5 0,-114.5"/>
<text text-anchor="middle" x="41" y="-121.5" font-family="Helvetica,sans-Serif" font-size="10.00">logic::Subject</text>
</a>
</g>
</g>
<!-- Node2&#45;&gt;Node1 -->
<g id="edge1" class="edge">
<title>Node2&#45;&gt;Node1</title>
<path fill="none" stroke="midnightblue" d="M92.26,-124C100.69,-124 109.44,-124 117.89,-124"/>
<polygon fill="midnightblue" stroke="midnightblue" points="92.18,-120.5 82.18,-124 92.18,-127.5 92.18,-120.5"/>
</g>
<!-- Node5 -->
<g id="node5" class="node">
<title>Node5</title>
<g id="a_node5"><a xlink:href="classlogic_1_1Rocket__L.html" target="_top" xlink:title=" ">
<polygon fill="white" stroke="black" points="425,-190.5 425,-209.5 514,-209.5 514,-190.5 425,-190.5"/>
<text text-anchor="middle" x="469.5" y="-197.5" font-family="Helvetica,sans-Serif" font-size="10.00">logic::Rocket_L</text>
</a>
</g>
</g>
<!-- Node4&#45;&gt;Node5 -->
<g id="edge4" class="edge">
<title>Node4&#45;&gt;Node5</title>
<path fill="none" stroke="midnightblue" d="M343.72,-165.12C358.56,-170.36 376.01,-176.27 392,-181 403.28,-184.34 415.62,-187.58 427.03,-190.41"/>
<polygon fill="midnightblue" stroke="midnightblue" points="344.51,-161.68 333.91,-161.62 342.15,-168.28 344.51,-161.68"/>
</g>
<!-- Node6 -->
<g id="node6" class="node">
<title>Node6</title>
<g id="a_node6"><a xlink:href="classlogic_1_1Spring__L.html" target="_top" xlink:title=" ">
<polygon fill="white" stroke="black" points="426,-152.5 426,-171.5 513,-171.5 513,-152.5 426,-152.5"/>
<text text-anchor="middle" x="469.5" y="-159.5" font-family="Helvetica,sans-Serif" font-size="10.00">logic::Spring_L</text>
</a>
</g>
</g>
<!-- Node4&#45;&gt;Node6 -->
<g id="edge5" class="edge">
<title>Node4&#45;&gt;Node6</title>
<path fill="none" stroke="midnightblue" d="M360.3,-155.26C381.5,-156.58 405.67,-158.09 425.78,-159.34"/>
<polygon fill="midnightblue" stroke="midnightblue" points="360.37,-151.76 350.17,-154.63 359.93,-158.74 360.37,-151.76"/>
</g>
<!-- Node8 -->
<g id="node8" class="node">
<title>Node8</title>
<g id="a_node8"><a xlink:href="classlogic_1_1Platform__L__horizontal.html" target="_top" xlink:title=" ">
<polygon fill="white" stroke="black" points="393.5,-114.5 393.5,-133.5 545.5,-133.5 545.5,-114.5 393.5,-114.5"/>
<text text-anchor="middle" x="469.5" y="-121.5" font-family="Helvetica,sans-Serif" font-size="10.00">logic::Platform_L_horizontal</text>
</a>
</g>
</g>
<!-- Node7&#45;&gt;Node8 -->
<g id="edge7" class="edge">
<title>Node7&#45;&gt;Node8</title>
<path fill="none" stroke="midnightblue" d="M366.28,-111.9C375.08,-112.94 384.26,-114.03 393.36,-115.1"/>
<polygon fill="midnightblue" stroke="midnightblue" points="366.5,-108.4 356.16,-110.7 365.67,-115.35 366.5,-108.4"/>
</g>
<!-- Node9 -->
<g id="node9" class="node">
<title>Node9</title>
<g id="a_node9"><a xlink:href="classlogic_1_1Platform__L__static.html" target="_top" xlink:title=" ">
<polygon fill="white" stroke="black" points="404,-76.5 404,-95.5 535,-95.5 535,-76.5 404,-76.5"/>
<text text-anchor="middle" x="469.5" y="-83.5" font-family="Helvetica,sans-Serif" font-size="10.00">logic::Platform_L_static</text>
</a>
</g>
</g>
<!-- Node7&#45;&gt;Node9 -->
<g id="edge8" class="edge">
<title>Node7&#45;&gt;Node9</title>
<path fill="none" stroke="midnightblue" d="M366.2,-98.11C378.4,-96.67 391.33,-95.14 403.75,-93.67"/>
<polygon fill="midnightblue" stroke="midnightblue" points="365.67,-94.65 356.16,-99.3 366.5,-101.6 365.67,-94.65"/>
</g>
<!-- Node10 -->
<g id="node10" class="node">
<title>Node10</title>
<g id="a_node10"><a xlink:href="classlogic_1_1Platform__L__temporary.html" target="_top" xlink:title=" ">
<polygon fill="white" stroke="black" points="392,-38.5 392,-57.5 547,-57.5 547,-38.5 392,-38.5"/>
<text text-anchor="middle" x="469.5" y="-45.5" font-family="Helvetica,sans-Serif" font-size="10.00">logic::Platform_L_temporary</text>
</a>
</g>
</g>
<!-- Node7&#45;&gt;Node10 -->
<g id="edge9" class="edge">
<title>Node7&#45;&gt;Node10</title>
<path fill="none" stroke="midnightblue" d="M343.09,-91.62C347.47,-89.8 351.86,-87.91 356,-86 372.44,-78.44 375.1,-73.45 392,-67 401.59,-63.34 412.13,-60.2 422.23,-57.58"/>
<polygon fill="midnightblue" stroke="midnightblue" points="341.58,-88.46 333.63,-95.45 344.21,-94.95 341.58,-88.46"/>
</g>
<!-- Node11 -->
<g id="node11" class="node">
<title>Node11</title>
<g id="a_node11"><a xlink:href="classlogic_1_1Platform__L__vertical.html" target="_top" xlink:title=" ">
<polygon fill="white" stroke="black" points="399.5,-0.5 399.5,-19.5 539.5,-19.5 539.5,-0.5 399.5,-0.5"/>
<text text-anchor="middle" x="469.5" y="-7.5" font-family="Helvetica,sans-Serif" font-size="10.00">logic::Platform_L_vertical</text>
</a>
</g>
</g>
<!-- Node7&#45;&gt;Node11 -->
<g id="edge10" class="edge">
<title>Node7&#45;&gt;Node11</title>
<path fill="none" stroke="midnightblue" d="M349.5,-90.63C351.79,-89.22 353.98,-87.68 356,-86 379.07,-66.88 367.71,-46.54 392,-29 397.33,-25.15 403.34,-22.08 409.61,-19.63"/>
<polygon fill="midnightblue" stroke="midnightblue" points="347.51,-87.73 340.3,-95.49 350.78,-93.92 347.51,-87.73"/>
</g>
</g>
</svg>
        <g id="navigator" transform="translate(0 0)" fill="#404254">
                <rect fill="#f2f5e9" fill-opacity="0.5" stroke="#606060" stroke-width=".5" x="0" y="0" width="60" height="60"/>
                <use id="zoomplus" xlink:href="#zoomPlus" x="17" y="9" onmousedown="handleZoom(evt,'in')"/>
                <use id="zoomminus" xlink:href="#zoomMin" x="42" y="9" onmousedown="handleZoom(evt,'out')"/>
                <use id="reset" xlink:href="#resetDef" x="30" y="36" onmousedown="handleReset()"/>
                <g id="arrowUp" xlink:href="#dirArrow" transform="translate(30 24)" onmousedown="handlePan(0,-1)">
                  <use xlink:href="#rim" fill="#404040">
                        <set attributeName="fill" to="#808080" begin="arrowUp.mouseover" end="arrowUp.mouseout"/>
                  </use>
                  <path fill="none" stroke="white" stroke-width="1.5" d="M0,-3.0v7 M-2.5,-0.5L0,-3.0L2.5,-0.5"/>
                </g>
                <g id="arrowRight" xlink:href="#dirArrow" transform="rotate(90) translate(36 -43)" onmousedown="handlePan(1,0)">
                  <use xlink:href="#rim" fill="#404040">
                        <set attributeName="fill" to="#808080" begin="arrowRight.mouseover" end="arrowRight.mouseout"/>
                  </use>
                  <path fill="none" stroke="white" stroke-width="1.5" d="M0,-3.0v7 M-2.5,-0.5L0,-3.0L2.5,-0.5"/>
                </g>
                <g id="arrowDown" xlink:href="#dirArrow" transform="rotate(180) translate(-30 -48)" onmousedown="handlePan(0,1)">
                  <use xlink:href="#rim" fill="#404040">
                        <set attributeName="fill" to="#808080" begin="arrowDown.mouseover" end="arrowDown.mouseout"/>
                  </use>
                  <path fill="none" stroke="white" stroke-width="1.5" d="M0,-3.0v7 M-2.5,-0.5L0,-3.0L2.5,-0.5"/>
                </g>
                <g id="arrowLeft" xlink:href="#dirArrow" transform="rotate(270) translate(-36 17)" onmousedown="handlePan(-1,0)">
                  <use xlink:href="#rim" fill="#404040">
                        <set attributeName="fill" to="#808080" begin="arrowLeft.mouseover" end="arrowLeft.mouseout"/>
                  </use>
                  <path fill="none" stroke="white" stroke-width="1.5" d="M0,-3.0v7 M-2.5,-0.5L0,-3.0L2.5,-0.5"/>
                </g>
        </g>
        <svg viewBox="0 0 15 15" width="100%" height="30px" preserveAspectRatio="xMaxYMin meet">
         <g id="arrow_out" transform="scale(0.3 0.3)">
          <a xlink:href="classlogic_1_1EntityModel__inherit__graph_org.svg" target="_base">
           <rect id="button" ry="5" rx="5" y="6" x="6" height="38" width="38"
                fill="#f2f5e9" fill-opacity="0.5" stroke="#606060" stroke-width="1.0"/>
           <path id="arrow"
             d="M 11.500037,31.436501 C 11.940474,20.09759 22.043105,11.32322 32.158766,21.979434 L 37.068811,17.246167 C 37.068811,17.246167 37.088388,32 37.088388,32 L 22.160133,31.978069 C 22.160133,31.978069 26.997745,27.140456 26.997745,27.140456 C 18.528582,18.264221 13.291696,25.230495 11.500037,31.436501 z"
             style="fill:#404040;"/>
          </a>
         </g>
        </svg>
</svg>
