<?xml version="1.0" encoding="UTF-8" standalone="no"?>
<!DOCTYPE svg PUBLIC "-//W3C//DTD SVG 1.1//EN"
 "http://www.w3.org/Graphics/SVG/1.1/DTD/svg11.dtd">
<!-- Generated by graphviz version 2.43.0 (0)
 -->
<!-- Title: logic::Observer Pages: 1 -->
<!--zoomable 263 -->
<svg id="main" version="1.1" xmlns="http://www.w3.org/2000/svg" xmlns:xlink="http://www.w3.org/1999/xlink" xml:space="preserve" onload="init(evt)">
<style type="text/css"><![CDATA[
.edge:hover path { stroke: red; }
.edge:hover polygon { stroke: red; fill: red; }
]]></style>
<script type="text/javascript"><![CDATA[
var edges = document.getElementsByTagName('g');
if (edges && edges.length) {
  for (var i=0;i<edges.length;i++) {
    if (edges[i].id.substr(0,4)=='edge') {
      edges[i].setAttribute('class','edge');
    }
  }
}
]]></script>
        <defs>
                <circle id="rim" cx="0" cy="0" r="7"/>
                <circle id="rim2" cx="0" cy="0" r="3.5"/>
                <g id="zoomPlus">
                        <use xlink:href="#rim" fill="#404040">
                                <set attributeName="fill" to="#808080" begin="zoomplus.mouseover" end="zoomplus.mouseout"/>
                        </use>
                        <path d="M-4,0h8M0,-4v8" fill="none" stroke="white" stroke-width="1.5" pointer-events="none"/>
                </g>
                <g id="zoomMin">
                        <use xlink:href="#rim" fill="#404040">
                                <set attributeName="fill" to="#808080" begin="zoomminus.mouseover" end="zoomminus.mouseout"/>
                        </use>
                        <path d="M-4,0h8" fill="none" stroke="white" stroke-width="1.5" pointer-events="none"/>
                </g>
                <g id="dirArrow">
                        <path fill="none" stroke="white" stroke-width="1.5" d="M0,-3.0v7 M-2.5,-0.5L0,-3.0L2.5,-0.5"/>
                </g>
               <g id="resetDef">
                       <use xlink:href="#rim2" fill="#404040">
                               <set attributeName="fill" to="#808080" begin="reset.mouseover" end="reset.mouseout"/>
                       </use>
               </g>
        </defs>

<script type="text/javascript">
var viewWidth = 624;
var viewHeight = 263;
var sectionId = 'dynsection-0';
</script>
<script xlink:href="svgpan.js"/>
<svg id="graph" class="graph">
<g id="viewport">
<title>logic::Observer</title>
<polygon fill="white" stroke="transparent" points="-4,4 -4,-258.5 620,-258.5 620,4 -4,4"/>
<!-- Node1 -->
<g id="node1" class="node">
<title>Node1</title>
<g id="a_node1"><a xlink:title=" ">
<polygon fill="#bfbfbf" stroke="black" points="0,-156 0,-175 90,-175 90,-156 0,-156"/>
<text text-anchor="middle" x="45" y="-163" font-family="Helvetica,sans-Serif" font-size="10.00">logic::Observer</text>
</a>
</g>
</g>
<!-- Node2 -->
<g id="node2" class="node">
<title>Node2</title>
<g id="a_node2"><a xlink:href="classlogic_1_1Score.html" target="_top" xlink:title=" ">
<polygon fill="white" stroke="black" points="162.5,-175 162.5,-194 235.5,-194 235.5,-175 162.5,-175"/>
<text text-anchor="middle" x="199" y="-182" font-family="Helvetica,sans-Serif" font-size="10.00">logic::Score</text>
</a>
</g>
</g>
<!-- Node1&#45;&gt;Node2 -->
<g id="edge1" class="edge">
<title>Node1&#45;&gt;Node2</title>
<path fill="none" stroke="midnightblue" d="M100.31,-172.29C120.99,-174.87 144,-177.75 162.5,-180.06"/>
<polygon fill="midnightblue" stroke="midnightblue" points="100.73,-168.81 90.37,-171.05 99.86,-175.76 100.73,-168.81"/>
</g>
<!-- Node3 -->
<g id="node3" class="node">
<title>Node3</title>
<g id="a_node3"><a xlink:href="classrepresentation_1_1EntityView.html" target="_top" xlink:title=" ">
<polygon fill="white" stroke="black" points="126,-137 126,-156 272,-156 272,-137 126,-137"/>
<text text-anchor="middle" x="199" y="-144" font-family="Helvetica,sans-Serif" font-size="10.00">representation::EntityView</text>
</a>
</g>
</g>
<!-- Node1&#45;&gt;Node3 -->
<g id="edge2" class="edge">
<title>Node1&#45;&gt;Node3</title>
<path fill="none" stroke="midnightblue" d="M100.54,-158.68C108.75,-157.66 117.32,-156.58 125.83,-155.52"/>
<polygon fill="midnightblue" stroke="midnightblue" points="99.86,-155.24 90.37,-159.95 100.73,-162.19 99.86,-155.24"/>
</g>
<!-- Node4 -->
<g id="node4" class="node">
<title>Node4</title>
<g id="a_node4"><a xlink:href="classrepresentation_1_1BG__Tile.html" target="_top" xlink:title=" ">
<polygon fill="white" stroke="black" points="310.5,-221 310.5,-240 441.5,-240 441.5,-221 310.5,-221"/>
<text text-anchor="middle" x="376" y="-228" font-family="Helvetica,sans-Serif" font-size="10.00">representation::BG_Tile</text>
</a>
</g>
</g>
<!-- Node3&#45;&gt;Node4 -->
<g id="edge3" class="edge">
<title>Node3&#45;&gt;Node4</title>
<path fill="none" stroke="midnightblue" d="M261.97,-159.92C265.47,-161.57 268.85,-163.42 272,-165.5 293.68,-179.78 286.45,-197.02 308,-211.5 313.72,-215.34 320.22,-218.42 326.86,-220.87"/>
<polygon fill="midnightblue" stroke="midnightblue" points="263.06,-156.58 252.48,-156.01 260.39,-163.06 263.06,-156.58"/>
</g>
<!-- Node5 -->
<g id="node5" class="node">
<title>Node5</title>
<g id="a_node5"><a xlink:href="classrepresentation_1_1Bonus.html" target="_top" xlink:title=" ">
<polygon fill="white" stroke="black" points="314,-183 314,-202 438,-202 438,-183 314,-183"/>
<text text-anchor="middle" x="376" y="-190" font-family="Helvetica,sans-Serif" font-size="10.00">representation::Bonus</text>
</a>
</g>
</g>
<!-- Node3&#45;&gt;Node5 -->
<g id="edge4" class="edge">
<title>Node3&#45;&gt;Node5</title>
<path fill="none" stroke="midnightblue" d="M246.15,-158.63C275.11,-166.24 311.93,-175.92 338.79,-182.98"/>
<polygon fill="midnightblue" stroke="midnightblue" points="246.82,-155.19 236.26,-156.03 245.04,-161.96 246.82,-155.19"/>
</g>
<!-- Node8 -->
<g id="node8" class="node">
<title>Node8</title>
<g id="a_node8"><a xlink:href="classrepresentation_1_1Platform.html" target="_top" xlink:title=" ">
<polygon fill="white" stroke="black" points="308,-118 308,-137 444,-137 444,-118 308,-118"/>
<text text-anchor="middle" x="376" y="-125" font-family="Helvetica,sans-Serif" font-size="10.00">representation::Platform</text>
</a>
</g>
</g>
<!-- Node3&#45;&gt;Node8 -->
<g id="edge7" class="edge">
<title>Node3&#45;&gt;Node8</title>
<path fill="none" stroke="midnightblue" d="M282.19,-137.58C290.75,-136.65 299.38,-135.71 307.75,-134.8"/>
<polygon fill="midnightblue" stroke="midnightblue" points="281.75,-134.1 272.19,-138.66 282.51,-141.06 281.75,-134.1"/>
</g>
<!-- Node13 -->
<g id="node13" class="node">
<title>Node13</title>
<g id="a_node13"><a xlink:href="classrepresentation_1_1Player.html" target="_top" xlink:title=" ">
<polygon fill="white" stroke="black" points="313.5,-80 313.5,-99 438.5,-99 438.5,-80 313.5,-80"/>
<text text-anchor="middle" x="376" y="-87" font-family="Helvetica,sans-Serif" font-size="10.00">representation::Player</text>
</a>
</g>
</g>
<!-- Node3&#45;&gt;Node13 -->
<g id="edge12" class="edge">
<title>Node3&#45;&gt;Node13</title>
<path fill="none" stroke="midnightblue" d="M235.08,-133.54C256.12,-125.92 283.47,-116.29 308,-108.5 318.26,-105.24 329.48,-101.96 339.76,-99.05"/>
<polygon fill="midnightblue" stroke="midnightblue" points="233.8,-130.28 225.6,-136.99 236.19,-136.86 233.8,-130.28"/>
</g>
<!-- Node6 -->
<g id="node6" class="node">
<title>Node6</title>
<g id="a_node6"><a xlink:href="classrepresentation_1_1Rocket.html" target="_top" xlink:title=" ">
<polygon fill="white" stroke="black" points="484.5,-235 484.5,-254 611.5,-254 611.5,-235 484.5,-235"/>
<text text-anchor="middle" x="548" y="-242" font-family="Helvetica,sans-Serif" font-size="10.00">representation::Rocket</text>
</a>
</g>
</g>
<!-- Node5&#45;&gt;Node6 -->
<g id="edge5" class="edge">
<title>Node5&#45;&gt;Node6</title>
<path fill="none" stroke="midnightblue" d="M422.66,-204.82C429.83,-206.94 437.14,-209.2 444,-211.5 460.28,-216.96 463.72,-220.04 480,-225.5 489.97,-228.84 500.91,-232.11 510.99,-234.96"/>
<polygon fill="midnightblue" stroke="midnightblue" points="423.59,-201.45 413.01,-202.04 421.64,-208.17 423.59,-201.45"/>
</g>
<!-- Node7 -->
<g id="node7" class="node">
<title>Node7</title>
<g id="a_node7"><a xlink:href="classrepresentation_1_1Spring.html" target="_top" xlink:title=" ">
<polygon fill="white" stroke="black" points="485.5,-197 485.5,-216 610.5,-216 610.5,-197 485.5,-197"/>
<text text-anchor="middle" x="548" y="-204" font-family="Helvetica,sans-Serif" font-size="10.00">representation::Spring</text>
</a>
</g>
</g>
<!-- Node5&#45;&gt;Node7 -->
<g id="edge6" class="edge">
<title>Node5&#45;&gt;Node7</title>
<path fill="none" stroke="midnightblue" d="M448.56,-198.39C460.82,-199.4 473.46,-200.44 485.43,-201.43"/>
<polygon fill="midnightblue" stroke="midnightblue" points="448.63,-194.89 438.37,-197.55 448.05,-201.86 448.63,-194.89"/>
</g>
<!-- Node9 -->
<g id="node9" class="node">
<title>Node9</title>
<g id="a_node9"><a xlink:href="classrepresentation_1_1Platform__horizontal.html" target="_top" xlink:title=" ">
<polygon fill="white" stroke="black" points="480,-147.5 480,-177.5 616,-177.5 616,-147.5 480,-147.5"/>
<text text-anchor="start" x="488" y="-165.5" font-family="Helvetica,sans-Serif" font-size="10.00">representation::Platform</text>
<text text-anchor="middle" x="548" y="-154.5" font-family="Helvetica,sans-Serif" font-size="10.00">_horizontal</text>
</a>
</g>
</g>
<!-- Node8&#45;&gt;Node9 -->
<g id="edge8" class="edge">
<title>Node8&#45;&gt;Node9</title>
<path fill="none" stroke="midnightblue" d="M433.5,-139.13C448.36,-142.19 464.53,-145.52 479.89,-148.68"/>
<polygon fill="midnightblue" stroke="midnightblue" points="433.95,-135.65 423.45,-137.06 432.54,-142.51 433.95,-135.65"/>
</g>
<!-- Node10 -->
<g id="node10" class="node">
<title>Node10</title>
<g id="a_node10"><a xlink:href="classrepresentation_1_1Platform__static.html" target="_top" xlink:title=" ">
<polygon fill="white" stroke="black" points="480,-98.5 480,-128.5 616,-128.5 616,-98.5 480,-98.5"/>
<text text-anchor="start" x="488" y="-116.5" font-family="Helvetica,sans-Serif" font-size="10.00">representation::Platform</text>
<text text-anchor="middle" x="548" y="-105.5" font-family="Helvetica,sans-Serif" font-size="10.00">_static</text>
</a>
</g>
</g>
<!-- Node8&#45;&gt;Node10 -->
<g id="edge9" class="edge">
<title>Node8&#45;&gt;Node10</title>
<path fill="none" stroke="midnightblue" d="M454.42,-121.12C462.88,-120.43 471.43,-119.72 479.74,-119.04"/>
<polygon fill="midnightblue" stroke="midnightblue" points="453.87,-117.66 444.19,-121.97 454.44,-124.63 453.87,-117.66"/>
</g>
<!-- Node11 -->
<g id="node11" class="node">
<title>Node11</title>
<g id="a_node11"><a xlink:href="classrepresentation_1_1Platform__temporary.html" target="_top" xlink:title=" ">
<polygon fill="white" stroke="black" points="480,-49.5 480,-79.5 616,-79.5 616,-49.5 480,-49.5"/>
<text text-anchor="start" x="488" y="-67.5" font-family="Helvetica,sans-Serif" font-size="10.00">representation::Platform</text>
<text text-anchor="middle" x="548" y="-56.5" font-family="Helvetica,sans-Serif" font-size="10.00">_temporary</text>
</a>
</g>
</g>
<!-- Node8&#45;&gt;Node11 -->
<g id="edge10" class="edge">
<title>Node8&#45;&gt;Node11</title>
<path fill="none" stroke="midnightblue" d="M425.77,-114.97C431.97,-113 438.18,-110.83 444,-108.5 460.79,-101.77 463.49,-96.9 480,-89.5 487.7,-86.05 496.04,-82.66 504.13,-79.56"/>
<polygon fill="midnightblue" stroke="midnightblue" points="424.64,-111.65 416.08,-117.9 426.67,-118.35 424.64,-111.65"/>
</g>
<!-- Node12 -->
<g id="node12" class="node">
<title>Node12</title>
<g id="a_node12"><a xlink:href="classrepresentation_1_1Platform__vertical.html" target="_top" xlink:title=" ">
<polygon fill="white" stroke="black" points="480,-0.5 480,-30.5 616,-30.5 616,-0.5 480,-0.5"/>
<text text-anchor="start" x="488" y="-18.5" font-family="Helvetica,sans-Serif" font-size="10.00">representation::Platform</text>
<text text-anchor="middle" x="548" y="-7.5" font-family="Helvetica,sans-Serif" font-size="10.00">_vertical</text>
</a>
</g>
</g>
<!-- Node8&#45;&gt;Node12 -->
<g id="edge11" class="edge">
<title>Node8&#45;&gt;Node12</title>
<path fill="none" stroke="midnightblue" d="M436.81,-113.45C439.34,-111.96 441.75,-110.32 444,-108.5 470.59,-86.99 454.3,-63.06 480,-40.5 484.38,-36.65 489.42,-33.37 494.71,-30.58"/>
<polygon fill="midnightblue" stroke="midnightblue" points="435.24,-110.32 427.86,-117.92 438.37,-116.58 435.24,-110.32"/>
</g>
</g>
</svg>
        <g id="navigator" transform="translate(0 0)" fill="#404254">
                <rect fill="#f2f5e9" fill-opacity="0.5" stroke="#606060" stroke-width=".5" x="0" y="0" width="60" height="60"/>
                <use id="zoomplus" xlink:href="#zoomPlus" x="17" y="9" onmousedown="handleZoom(evt,'in')"/>
                <use id="zoomminus" xlink:href="#zoomMin" x="42" y="9" onmousedown="handleZoom(evt,'out')"/>
                <use id="reset" xlink:href="#resetDef" x="30" y="36" onmousedown="handleReset()"/>
                <g id="arrowUp" xlink:href="#dirArrow" transform="translate(30 24)" onmousedown="handlePan(0,-1)">
                  <use xlink:href="#rim" fill="#404040">
                        <set attributeName="fill" to="#808080" begin="arrowUp.mouseover" end="arrowUp.mouseout"/>
                  </use>
                  <path fill="none" stroke="white" stroke-width="1.5" d="M0,-3.0v7 M-2.5,-0.5L0,-3.0L2.5,-0.5"/>
                </g>
                <g id="arrowRight" xlink:href="#dirArrow" transform="rotate(90) translate(36 -43)" onmousedown="handlePan(1,0)">
                  <use xlink:href="#rim" fill="#404040">
                        <set attributeName="fill" to="#808080" begin="arrowRight.mouseover" end="arrowRight.mouseout"/>
                  </use>
                  <path fill="none" stroke="white" stroke-width="1.5" d="M0,-3.0v7 M-2.5,-0.5L0,-3.0L2.5,-0.5"/>
                </g>
                <g id="arrowDown" xlink:href="#dirArrow" transform="rotate(180) translate(-30 -48)" onmousedown="handlePan(0,1)">
                  <use xlink:href="#rim" fill="#404040">
                        <set attributeName="fill" to="#808080" begin="arrowDown.mouseover" end="arrowDown.mouseout"/>
                  </use>
                  <path fill="none" stroke="white" stroke-width="1.5" d="M0,-3.0v7 M-2.5,-0.5L0,-3.0L2.5,-0.5"/>
                </g>
                <g id="arrowLeft" xlink:href="#dirArrow" transform="rotate(270) translate(-36 17)" onmousedown="handlePan(-1,0)">
                  <use xlink:href="#rim" fill="#404040">
                        <set attributeName="fill" to="#808080" begin="arrowLeft.mouseover" end="arrowLeft.mouseout"/>
                  </use>
                  <path fill="none" stroke="white" stroke-width="1.5" d="M0,-3.0v7 M-2.5,-0.5L0,-3.0L2.5,-0.5"/>
                </g>
        </g>
        <svg viewBox="0 0 15 15" width="100%" height="30px" preserveAspectRatio="xMaxYMin meet">
         <g id="arrow_out" transform="scale(0.3 0.3)">
          <a xlink:href="classlogic_1_1Observer__inherit__graph_org.svg" target="_base">
           <rect id="button" ry="5" rx="5" y="6" x="6" height="38" width="38"
                fill="#f2f5e9" fill-opacity="0.5" stroke="#606060" stroke-width="1.0"/>
           <path id="arrow"
             d="M 11.500037,31.436501 C 11.940474,20.09759 22.043105,11.32322 32.158766,21.979434 L 37.068811,17.246167 C 37.068811,17.246167 37.088388,32 37.088388,32 L 22.160133,31.978069 C 22.160133,31.978069 26.997745,27.140456 26.997745,27.140456 C 18.528582,18.264221 13.291696,25.230495 11.500037,31.436501 z"
             style="fill:#404040;"/>
          </a>
         </g>
        </svg>
</svg>
