<?xml version="1.0" encoding="UTF-8" standalone="no"?>
<!DOCTYPE svg PUBLIC "-//W3C//DTD SVG 1.1//EN"
 "http://www.w3.org/Graphics/SVG/1.1/DTD/svg11.dtd">
<!-- Generated by graphviz version 2.43.0 (0)
 -->
<!-- Title: representation::Platform Pages: 1 -->
<!--zoomable 186 -->
<svg id="main" version="1.1" xmlns="http://www.w3.org/2000/svg" xmlns:xlink="http://www.w3.org/1999/xlink" xml:space="preserve" onload="init(evt)">
<style type="text/css"><![CDATA[
.edge:hover path { stroke: red; }
.edge:hover polygon { stroke: red; fill: red; }
]]></style>
<script type="text/javascript"><![CDATA[
var edges = document.getElementsByTagName('g');
if (edges && edges.length) {
  for (var i=0;i<edges.length;i++) {
    if (edges[i].id.substr(0,4)=='edge') {
      edges[i].setAttribute('class','edge');
    }
  }
}
]]></script>
        <defs>
                <circle id="rim" cx="0" cy="0" r="7"/>
                <circle id="rim2" cx="0" cy="0" r="3.5"/>
                <g id="zoomPlus">
                        <use xlink:href="#rim" fill="#404040">
                                <set attributeName="fill" to="#808080" begin="zoomplus.mouseover" end="zoomplus.mouseout"/>
                        </use>
                        <path d="M-4,0h8M0,-4v8" fill="none" stroke="white" stroke-width="1.5" pointer-events="none"/>
                </g>
                <g id="zoomMin">
                        <use xlink:href="#rim" fill="#404040">
                                <set attributeName="fill" to="#808080" begin="zoomminus.mouseover" end="zoomminus.mouseout"/>
                        </use>
                        <path d="M-4,0h8" fill="none" stroke="white" stroke-width="1.5" pointer-events="none"/>
                </g>
                <g id="dirArrow">
                        <path fill="none" stroke="white" stroke-width="1.5" d="M0,-3.0v7 M-2.5,-0.5L0,-3.0L2.5,-0.5"/>
                </g>
               <g id="resetDef">
                       <use xlink:href="#rim2" fill="#404040">
                               <set attributeName="fill" to="#808080" begin="reset.mouseover" end="reset.mouseout"/>
                       </use>
               </g>
        </defs>

<script type="text/javascript">
var viewWidth = 624;
var viewHeight = 186;
var sectionId = 'dynsection-0';
</script>
<script xlink:href="svgpan.js"/>
<svg id="graph" class="graph">
<g id="viewport">
<title>representation::Platform</title>
<polygon fill="white" stroke="transparent" points="-4,4 -4,-182 620,-182 620,4 -4,4"/>
<!-- Node1 -->
<g id="node1" class="node">
<title>Node1</title>
<g id="a_node1"><a xlink:title=" ">
<polygon fill="#bfbfbf" stroke="black" points="308,-79 308,-98 444,-98 444,-79 308,-79"/>
<text text-anchor="middle" x="376" y="-86" font-family="Helvetica,sans-Serif" font-size="10.00">representation::Platform</text>
</a>
</g>
</g>
<!-- Node4 -->
<g id="node4" class="node">
<title>Node4</title>
<g id="a_node4"><a xlink:href="classrepresentation_1_1Platform__horizontal.html" target="_top" xlink:title=" ">
<polygon fill="white" stroke="black" points="480,-147.5 480,-177.5 616,-177.5 616,-147.5 480,-147.5"/>
<text text-anchor="start" x="488" y="-165.5" font-family="Helvetica,sans-Serif" font-size="10.00">representation::Platform</text>
<text text-anchor="middle" x="548" y="-154.5" font-family="Helvetica,sans-Serif" font-size="10.00">_horizontal</text>
</a>
</g>
</g>
<!-- Node1&#45;&gt;Node4 -->
<g id="edge3" class="edge">
<title>Node1&#45;&gt;Node4</title>
<path fill="none" stroke="midnightblue" d="M404.41,-102.81C424.96,-113.29 453.9,-127.53 480,-138.5 487.29,-141.56 495.12,-144.6 502.77,-147.42"/>
<polygon fill="midnightblue" stroke="midnightblue" points="405.82,-99.6 395.33,-98.14 402.63,-105.83 405.82,-99.6"/>
</g>
<!-- Node5 -->
<g id="node5" class="node">
<title>Node5</title>
<g id="a_node5"><a xlink:href="classrepresentation_1_1Platform__static.html" target="_top" xlink:title=" ">
<polygon fill="white" stroke="black" points="480,-98.5 480,-128.5 616,-128.5 616,-98.5 480,-98.5"/>
<text text-anchor="start" x="488" y="-116.5" font-family="Helvetica,sans-Serif" font-size="10.00">representation::Platform</text>
<text text-anchor="middle" x="548" y="-105.5" font-family="Helvetica,sans-Serif" font-size="10.00">_static</text>
</a>
</g>
</g>
<!-- Node1&#45;&gt;Node5 -->
<g id="edge4" class="edge">
<title>Node1&#45;&gt;Node5</title>
<path fill="none" stroke="midnightblue" d="M451.81,-99.5C461.15,-100.88 470.67,-102.27 479.88,-103.63"/>
<polygon fill="midnightblue" stroke="midnightblue" points="452.16,-96.02 441.75,-98.02 451.14,-102.94 452.16,-96.02"/>
</g>
<!-- Node6 -->
<g id="node6" class="node">
<title>Node6</title>
<g id="a_node6"><a xlink:href="classrepresentation_1_1Platform__temporary.html" target="_top" xlink:title=" ">
<polygon fill="white" stroke="black" points="480,-49.5 480,-79.5 616,-79.5 616,-49.5 480,-49.5"/>
<text text-anchor="start" x="488" y="-67.5" font-family="Helvetica,sans-Serif" font-size="10.00">representation::Platform</text>
<text text-anchor="middle" x="548" y="-56.5" font-family="Helvetica,sans-Serif" font-size="10.00">_temporary</text>
</a>
</g>
</g>
<!-- Node1&#45;&gt;Node6 -->
<g id="edge5" class="edge">
<title>Node1&#45;&gt;Node6</title>
<path fill="none" stroke="midnightblue" d="M454.15,-77.61C462.69,-76.4 471.34,-75.18 479.74,-74"/>
<polygon fill="midnightblue" stroke="midnightblue" points="453.6,-74.15 444.19,-79.01 454.58,-81.08 453.6,-74.15"/>
</g>
<!-- Node7 -->
<g id="node7" class="node">
<title>Node7</title>
<g id="a_node7"><a xlink:href="classrepresentation_1_1Platform__vertical.html" target="_top" xlink:title=" ">
<polygon fill="white" stroke="black" points="480,-0.5 480,-30.5 616,-30.5 616,-0.5 480,-0.5"/>
<text text-anchor="start" x="488" y="-18.5" font-family="Helvetica,sans-Serif" font-size="10.00">representation::Platform</text>
<text text-anchor="middle" x="548" y="-7.5" font-family="Helvetica,sans-Serif" font-size="10.00">_vertical</text>
</a>
</g>
</g>
<!-- Node1&#45;&gt;Node7 -->
<g id="edge6" class="edge">
<title>Node1&#45;&gt;Node7</title>
<path fill="none" stroke="midnightblue" d="M404.82,-74.33C425.36,-64.11 454.11,-50.26 480,-39.5 487.3,-36.46 495.14,-33.45 502.79,-30.63"/>
<polygon fill="midnightblue" stroke="midnightblue" points="403.1,-71.28 395.73,-78.89 406.24,-77.54 403.1,-71.28"/>
</g>
<!-- Node2 -->
<g id="node2" class="node">
<title>Node2</title>
<g id="a_node2"><a xlink:href="classrepresentation_1_1EntityView.html" target="_top" xlink:title=" ">
<polygon fill="white" stroke="black" points="126,-79 126,-98 272,-98 272,-79 126,-79"/>
<text text-anchor="middle" x="199" y="-86" font-family="Helvetica,sans-Serif" font-size="10.00">representation::EntityView</text>
</a>
</g>
</g>
<!-- Node2&#45;&gt;Node1 -->
<g id="edge1" class="edge">
<title>Node2&#45;&gt;Node1</title>
<path fill="none" stroke="midnightblue" d="M282.19,-88.5C290.75,-88.5 299.38,-88.5 307.75,-88.5"/>
<polygon fill="midnightblue" stroke="midnightblue" points="282.19,-85 272.19,-88.5 282.19,-92 282.19,-85"/>
</g>
<!-- Node3 -->
<g id="node3" class="node">
<title>Node3</title>
<g id="a_node3"><a xlink:href="classlogic_1_1Observer.html" target="_top" xlink:title=" ">
<polygon fill="white" stroke="black" points="0,-79 0,-98 90,-98 90,-79 0,-79"/>
<text text-anchor="middle" x="45" y="-86" font-family="Helvetica,sans-Serif" font-size="10.00">logic::Observer</text>
</a>
</g>
</g>
<!-- Node3&#45;&gt;Node2 -->
<g id="edge2" class="edge">
<title>Node3&#45;&gt;Node2</title>
<path fill="none" stroke="midnightblue" d="M100.54,-88.5C108.75,-88.5 117.32,-88.5 125.83,-88.5"/>
<polygon fill="midnightblue" stroke="midnightblue" points="100.37,-85 90.37,-88.5 100.37,-92 100.37,-85"/>
</g>
</g>
</svg>
        <g id="navigator" transform="translate(0 0)" fill="#404254">
                <rect fill="#f2f5e9" fill-opacity="0.5" stroke="#606060" stroke-width=".5" x="0" y="0" width="60" height="60"/>
                <use id="zoomplus" xlink:href="#zoomPlus" x="17" y="9" onmousedown="handleZoom(evt,'in')"/>
                <use id="zoomminus" xlink:href="#zoomMin" x="42" y="9" onmousedown="handleZoom(evt,'out')"/>
                <use id="reset" xlink:href="#resetDef" x="30" y="36" onmousedown="handleReset()"/>
                <g id="arrowUp" xlink:href="#dirArrow" transform="translate(30 24)" onmousedown="handlePan(0,-1)">
                  <use xlink:href="#rim" fill="#404040">
                        <set attributeName="fill" to="#808080" begin="arrowUp.mouseover" end="arrowUp.mouseout"/>
                  </use>
                  <path fill="none" stroke="white" stroke-width="1.5" d="M0,-3.0v7 M-2.5,-0.5L0,-3.0L2.5,-0.5"/>
                </g>
                <g id="arrowRight" xlink:href="#dirArrow" transform="rotate(90) translate(36 -43)" onmousedown="handlePan(1,0)">
                  <use xlink:href="#rim" fill="#404040">
                        <set attributeName="fill" to="#808080" begin="arrowRight.mouseover" end="arrowRight.mouseout"/>
                  </use>
                  <path fill="none" stroke="white" stroke-width="1.5" d="M0,-3.0v7 M-2.5,-0.5L0,-3.0L2.5,-0.5"/>
                </g>
                <g id="arrowDown" xlink:href="#dirArrow" transform="rotate(180) translate(-30 -48)" onmousedown="handlePan(0,1)">
                  <use xlink:href="#rim" fill="#404040">
                        <set attributeName="fill" to="#808080" begin="arrowDown.mouseover" end="arrowDown.mouseout"/>
                  </use>
                  <path fill="none" stroke="white" stroke-width="1.5" d="M0,-3.0v7 M-2.5,-0.5L0,-3.0L2.5,-0.5"/>
                </g>
                <g id="arrowLeft" xlink:href="#dirArrow" transform="rotate(270) translate(-36 17)" onmousedown="handlePan(-1,0)">
                  <use xlink:href="#rim" fill="#404040">
                        <set attributeName="fill" to="#808080" begin="arrowLeft.mouseover" end="arrowLeft.mouseout"/>
                  </use>
                  <path fill="none" stroke="white" stroke-width="1.5" d="M0,-3.0v7 M-2.5,-0.5L0,-3.0L2.5,-0.5"/>
                </g>
        </g>
        <svg viewBox="0 0 15 15" width="100%" height="30px" preserveAspectRatio="xMaxYMin meet">
         <g id="arrow_out" transform="scale(0.3 0.3)">
          <a xlink:href="classrepresentation_1_1Platform__inherit__graph_org.svg" target="_base">
           <rect id="button" ry="5" rx="5" y="6" x="6" height="38" width="38"
                fill="#f2f5e9" fill-opacity="0.5" stroke="#606060" stroke-width="1.0"/>
           <path id="arrow"
             d="M 11.500037,31.436501 C 11.940474,20.09759 22.043105,11.32322 32.158766,21.979434 L 37.068811,17.246167 C 37.068811,17.246167 37.088388,32 37.088388,32 L 22.160133,31.978069 C 22.160133,31.978069 26.997745,27.140456 26.997745,27.140456 C 18.528582,18.264221 13.291696,25.230495 11.500037,31.436501 z"
             style="fill:#404040;"/>
          </a>
         </g>
        </svg>
</svg>
