<?xml version="1.0" encoding="UTF-8" standalone="no"?>
<!DOCTYPE svg PUBLIC "-//W3C//DTD SVG 1.1//EN"
 "http://www.w3.org/Graphics/SVG/1.1/DTD/svg11.dtd">
<!-- Generated by graphviz version 2.43.0 (0)
 -->
<!-- Title: logic::Platform_L Pages: 1 -->
<svg width="555pt" height="142pt"
 viewBox="0.00 0.00 555.00 142.00" xmlns="http://www.w3.org/2000/svg" xmlns:xlink="http://www.w3.org/1999/xlink">
<g id="graph0" class="graph" transform="scale(1 1) rotate(0) translate(4 138)">
<title>logic::Platform_L</title>
<polygon fill="white" stroke="transparent" points="-4,4 -4,-138 551,-138 551,4 -4,4"/>
<!-- Node1 -->
<g id="node1" class="node">
<title>Node1</title>
<g id="a_node1"><a xlink:title=" ">
<polygon fill="#bfbfbf" stroke="black" points="258,-57.5 258,-76.5 356,-76.5 356,-57.5 258,-57.5"/>
<text text-anchor="middle" x="307" y="-64.5" font-family="Helvetica,sans-Serif" font-size="10.00">logic::Platform_L</text>
</a>
</g>
</g>
<!-- Node4 -->
<g id="node4" class="node">
<title>Node4</title>
<g id="a_node4"><a xlink:href="classlogic_1_1Platform__L__horizontal.html" target="_top" xlink:title=" ">
<polygon fill="white" stroke="black" points="393.5,-114.5 393.5,-133.5 545.5,-133.5 545.5,-114.5 393.5,-114.5"/>
<text text-anchor="middle" x="469.5" y="-121.5" font-family="Helvetica,sans-Serif" font-size="10.00">logic::Platform_L_horizontal</text>
</a>
</g>
</g>
<!-- Node1&#45;&gt;Node4 -->
<g id="edge3" class="edge">
<title>Node1&#45;&gt;Node4</title>
<path fill="none" stroke="midnightblue" d="M335.98,-81.2C352.07,-88.97 372.84,-98.35 392,-105 402.34,-108.59 413.69,-111.79 424.41,-114.5"/>
<polygon fill="midnightblue" stroke="midnightblue" points="337.14,-77.87 326.62,-76.6 334.05,-84.15 337.14,-77.87"/>
</g>
<!-- Node5 -->
<g id="node5" class="node">
<title>Node5</title>
<g id="a_node5"><a xlink:href="classlogic_1_1Platform__L__static.html" target="_top" xlink:title=" ">
<polygon fill="white" stroke="black" points="404,-76.5 404,-95.5 535,-95.5 535,-76.5 404,-76.5"/>
<text text-anchor="middle" x="469.5" y="-83.5" font-family="Helvetica,sans-Serif" font-size="10.00">logic::Platform_L_static</text>
</a>
</g>
</g>
<!-- Node1&#45;&gt;Node5 -->
<g id="edge4" class="edge">
<title>Node1&#45;&gt;Node5</title>
<path fill="none" stroke="midnightblue" d="M366.2,-73.89C378.4,-75.33 391.33,-76.86 403.75,-78.33"/>
<polygon fill="midnightblue" stroke="midnightblue" points="366.5,-70.4 356.16,-72.7 365.67,-77.35 366.5,-70.4"/>
</g>
<!-- Node6 -->
<g id="node6" class="node">
<title>Node6</title>
<g id="a_node6"><a xlink:href="classlogic_1_1Platform__L__temporary.html" target="_top" xlink:title=" ">
<polygon fill="white" stroke="black" points="392,-38.5 392,-57.5 547,-57.5 547,-38.5 392,-38.5"/>
<text text-anchor="middle" x="469.5" y="-45.5" font-family="Helvetica,sans-Serif" font-size="10.00">logic::Platform_L_temporary</text>
</a>
</g>
</g>
<!-- Node1&#45;&gt;Node6 -->
<g id="edge5" class="edge">
<title>Node1&#45;&gt;Node6</title>
<path fill="none" stroke="midnightblue" d="M366.15,-60.12C374.51,-59.13 383.21,-58.1 391.86,-57.07"/>
<polygon fill="midnightblue" stroke="midnightblue" points="365.67,-56.65 356.16,-61.3 366.5,-63.6 365.67,-56.65"/>
</g>
<!-- Node7 -->
<g id="node7" class="node">
<title>Node7</title>
<g id="a_node7"><a xlink:href="classlogic_1_1Platform__L__vertical.html" target="_top" xlink:title=" ">
<polygon fill="white" stroke="black" points="399.5,-0.5 399.5,-19.5 539.5,-19.5 539.5,-0.5 399.5,-0.5"/>
<text text-anchor="middle" x="469.5" y="-7.5" font-family="Helvetica,sans-Serif" font-size="10.00">logic::Platform_L_vertical</text>
</a>
</g>
</g>
<!-- Node1&#45;&gt;Node7 -->
<g id="edge6" class="edge">
<title>Node1&#45;&gt;Node7</title>
<path fill="none" stroke="midnightblue" d="M335.98,-52.8C352.07,-45.03 372.84,-35.65 392,-29 402.34,-25.41 413.69,-22.21 424.41,-19.5"/>
<polygon fill="midnightblue" stroke="midnightblue" points="334.05,-49.85 326.62,-57.4 337.14,-56.13 334.05,-49.85"/>
</g>
<!-- Node2 -->
<g id="node2" class="node">
<title>Node2</title>
<g id="a_node2"><a xlink:href="classlogic_1_1EntityModel.html" target="_top" xlink:title=" ">
<polygon fill="white" stroke="black" points="118,-57.5 118,-76.5 222,-76.5 222,-57.5 118,-57.5"/>
<text text-anchor="middle" x="170" y="-64.5" font-family="Helvetica,sans-Serif" font-size="10.00">logic::EntityModel</text>
</a>
</g>
</g>
<!-- Node2&#45;&gt;Node1 -->
<g id="edge1" class="edge">
<title>Node2&#45;&gt;Node1</title>
<path fill="none" stroke="midnightblue" d="M232.28,-67C240.75,-67 249.36,-67 257.57,-67"/>
<polygon fill="midnightblue" stroke="midnightblue" points="232.04,-63.5 222.04,-67 232.04,-70.5 232.04,-63.5"/>
</g>
<!-- Node3 -->
<g id="node3" class="node">
<title>Node3</title>
<g id="a_node3"><a xlink:href="classlogic_1_1Subject.html" target="_top" xlink:title=" ">
<polygon fill="white" stroke="black" points="0,-57.5 0,-76.5 82,-76.5 82,-57.5 0,-57.5"/>
<text text-anchor="middle" x="41" y="-64.5" font-family="Helvetica,sans-Serif" font-size="10.00">logic::Subject</text>
</a>
</g>
</g>
<!-- Node3&#45;&gt;Node2 -->
<g id="edge2" class="edge">
<title>Node3&#45;&gt;Node2</title>
<path fill="none" stroke="midnightblue" d="M92.26,-67C100.69,-67 109.44,-67 117.89,-67"/>
<polygon fill="midnightblue" stroke="midnightblue" points="92.18,-63.5 82.18,-67 92.18,-70.5 92.18,-63.5"/>
</g>
</g>
</svg>
