<?xml version="1.0" encoding="UTF-8" standalone="no"?>
<!DOCTYPE svg PUBLIC "-//W3C//DTD SVG 1.1//EN"
 "http://www.w3.org/Graphics/SVG/1.1/DTD/svg11.dtd">
<!-- Generated by graphviz version 2.43.0 (0)
 -->
<!-- Title: representation::Platform Pages: 1 -->
<svg width="624pt" height="186pt"
 viewBox="0.00 0.00 624.00 186.00" xmlns="http://www.w3.org/2000/svg" xmlns:xlink="http://www.w3.org/1999/xlink">
<g id="graph0" class="graph" transform="scale(1 1) rotate(0) translate(4 182)">
<title>representation::Platform</title>
<polygon fill="white" stroke="transparent" points="-4,4 -4,-182 620,-182 620,4 -4,4"/>
<!-- Node1 -->
<g id="node1" class="node">
<title>Node1</title>
<g id="a_node1"><a xlink:title=" ">
<polygon fill="#bfbfbf" stroke="black" points="308,-79 308,-98 444,-98 444,-79 308,-79"/>
<text text-anchor="middle" x="376" y="-86" font-family="Helvetica,sans-Serif" font-size="10.00">representation::Platform</text>
</a>
</g>
</g>
<!-- Node4 -->
<g id="node4" class="node">
<title>Node4</title>
<g id="a_node4"><a xlink:href="classrepresentation_1_1Platform__horizontal.html" target="_top" xlink:title=" ">
<polygon fill="white" stroke="black" points="480,-147.5 480,-177.5 616,-177.5 616,-147.5 480,-147.5"/>
<text text-anchor="start" x="488" y="-165.5" font-family="Helvetica,sans-Serif" font-size="10.00">representation::Platform</text>
<text text-anchor="middle" x="548" y="-154.5" font-family="Helvetica,sans-Serif" font-size="10.00">_horizontal</text>
</a>
</g>
</g>
<!-- Node1&#45;&gt;Node4 -->
<g id="edge3" class="edge">
<title>Node1&#45;&gt;Node4</title>
<path fill="none" stroke="midnightblue" d="M404.41,-102.81C424.96,-113.29 453.9,-127.53 480,-138.5 487.29,-141.56 495.12,-144.6 502.77,-147.42"/>
<polygon fill="midnightblue" stroke="midnightblue" points="405.82,-99.6 395.33,-98.14 402.63,-105.83 405.82,-99.6"/>
</g>
<!-- Node5 -->
<g id="node5" class="node">
<title>Node5</title>
<g id="a_node5"><a xlink:href="classrepresentation_1_1Platform__static.html" target="_top" xlink:title=" ">
<polygon fill="white" stroke="black" points="480,-98.5 480,-128.5 616,-128.5 616,-98.5 480,-98.5"/>
<text text-anchor="start" x="488" y="-116.5" font-family="Helvetica,sans-Serif" font-size="10.00">representation::Platform</text>
<text text-anchor="middle" x="548" y="-105.5" font-family="Helvetica,sans-Serif" font-size="10.00">_static</text>
</a>
</g>
</g>
<!-- Node1&#45;&gt;Node5 -->
<g id="edge4" class="edge">
<title>Node1&#45;&gt;Node5</title>
<path fill="none" stroke="midnightblue" d="M451.81,-99.5C461.15,-100.88 470.67,-102.27 479.88,-103.63"/>
<polygon fill="midnightblue" stroke="midnightblue" points="452.16,-96.02 441.75,-98.02 451.14,-102.94 452.16,-96.02"/>
</g>
<!-- Node6 -->
<g id="node6" class="node">
<title>Node6</title>
<g id="a_node6"><a xlink:href="classrepresentation_1_1Platform__temporary.html" target="_top" xlink:title=" ">
<polygon fill="white" stroke="black" points="480,-49.5 480,-79.5 616,-79.5 616,-49.5 480,-49.5"/>
<text text-anchor="start" x="488" y="-67.5" font-family="Helvetica,sans-Serif" font-size="10.00">representation::Platform</text>
<text text-anchor="middle" x="548" y="-56.5" font-family="Helvetica,sans-Serif" font-size="10.00">_temporary</text>
</a>
</g>
</g>
<!-- Node1&#45;&gt;Node6 -->
<g id="edge5" class="edge">
<title>Node1&#45;&gt;Node6</title>
<path fill="none" stroke="midnightblue" d="M454.15,-77.61C462.69,-76.4 471.34,-75.18 479.74,-74"/>
<polygon fill="midnightblue" stroke="midnightblue" points="453.6,-74.15 444.19,-79.01 454.58,-81.08 453.6,-74.15"/>
</g>
<!-- Node7 -->
<g id="node7" class="node">
<title>Node7</title>
<g id="a_node7"><a xlink:href="classrepresentation_1_1Platform__vertical.html" target="_top" xlink:title=" ">
<polygon fill="white" stroke="black" points="480,-0.5 480,-30.5 616,-30.5 616,-0.5 480,-0.5"/>
<text text-anchor="start" x="488" y="-18.5" font-family="Helvetica,sans-Serif" font-size="10.00">representation::Platform</text>
<text text-anchor="middle" x="548" y="-7.5" font-family="Helvetica,sans-Serif" font-size="10.00">_vertical</text>
</a>
</g>
</g>
<!-- Node1&#45;&gt;Node7 -->
<g id="edge6" class="edge">
<title>Node1&#45;&gt;Node7</title>
<path fill="none" stroke="midnightblue" d="M404.82,-74.33C425.36,-64.11 454.11,-50.26 480,-39.5 487.3,-36.46 495.14,-33.45 502.79,-30.63"/>
<polygon fill="midnightblue" stroke="midnightblue" points="403.1,-71.28 395.73,-78.89 406.24,-77.54 403.1,-71.28"/>
</g>
<!-- Node2 -->
<g id="node2" class="node">
<title>Node2</title>
<g id="a_node2"><a xlink:href="classrepresentation_1_1EntityView.html" target="_top" xlink:title=" ">
<polygon fill="white" stroke="black" points="126,-79 126,-98 272,-98 272,-79 126,-79"/>
<text text-anchor="middle" x="199" y="-86" font-family="Helvetica,sans-Serif" font-size="10.00">representation::EntityView</text>
</a>
</g>
</g>
<!-- Node2&#45;&gt;Node1 -->
<g id="edge1" class="edge">
<title>Node2&#45;&gt;Node1</title>
<path fill="none" stroke="midnightblue" d="M282.19,-88.5C290.75,-88.5 299.38,-88.5 307.75,-88.5"/>
<polygon fill="midnightblue" stroke="midnightblue" points="282.19,-85 272.19,-88.5 282.19,-92 282.19,-85"/>
</g>
<!-- Node3 -->
<g id="node3" class="node">
<title>Node3</title>
<g id="a_node3"><a xlink:href="classlogic_1_1Observer.html" target="_top" xlink:title=" ">
<polygon fill="white" stroke="black" points="0,-79 0,-98 90,-98 90,-79 0,-79"/>
<text text-anchor="middle" x="45" y="-86" font-family="Helvetica,sans-Serif" font-size="10.00">logic::Observer</text>
</a>
</g>
</g>
<!-- Node3&#45;&gt;Node2 -->
<g id="edge2" class="edge">
<title>Node3&#45;&gt;Node2</title>
<path fill="none" stroke="midnightblue" d="M100.54,-88.5C108.75,-88.5 117.32,-88.5 125.83,-88.5"/>
<polygon fill="midnightblue" stroke="midnightblue" points="100.37,-85 90.37,-88.5 100.37,-92 100.37,-85"/>
</g>
</g>
</svg>
